# xmcd CD database file
#
# Track frame offsets:
#	150
#	11852
#	25665
#	41292
#	56542
#	81595
#	98060
#	118535
#	128332
#	138762
#	153460
#	164697
#	181890
#	199240
#	211160
#	224775
#	234812
#	247710
#	257722
#	280240
#
# Disc length: 3926 seconds
#
# Revision: 0
# Processed by: cddbd v1.4PL0 Copyright (c) Steve Scherf et al.
# Submitted via: CDex 1.51
#
DISCID=0e0f5414
DTITLE=Arthur Lyman - The Jazz Sounds of Arthur Lyman
DYEAR=1993
DGENRE=Jazz
TTITLE0=Theme from The Sandpiper
TTITLE1=Lullaby of The Leaves
TTITLE2=Trigger Fantasy
TTITLE3=On The Street where You Live
TTITLE4=How High The Moon
TTITLE5=My Funny Valentine
TTITLE6=Body and Soul
TTITLE7=Swingin Shepherd
TTITLE8=Gypsy in My Soul
TTITLE9=The Way You Look Tonight
TTITLE10=Caravan
TTITLE11=Manha De Carnival
TTITLE12=Cubana Chant
TTITLE13=Work Song
TTITLE14=Love for Sale
TTITLE15=Leis of Jazz
TTITLE16=Lullaby of Birdland
TTITLE17=Little Girl Blue
TTITLE18=The Lady is a Tramp
TTITLE19=Monin
EXTD=YEAR: 1993
EXTT0=
EXTT1=
EXTT2=
EXTT3=
EXTT4=
EXTT5=
EXTT6=
EXTT7=
EXTT8=
EXTT9=
EXTT10=
EXTT11=
EXTT12=
EXTT13=
EXTT14=
EXTT15=
EXTT16=
EXTT17=
EXTT18=
EXTT19=
PLAYORDER=
